<svg id="Layer_1" data-name="Layer 1" xmlns="http://www.w3.org/2000/svg" xmlns:xlink="http://www.w3.org/1999/xlink" viewBox="0 0 512 512"><defs><radialGradient id="GradientFill_1" cx="277.63" cy="233.54" r="285.66" gradientUnits="userSpaceOnUse"><stop offset="0" stop-color="#fff"/><stop offset="0.51" stop-color="#fbfbfb"/><stop offset="1" stop-color="#d0d2d3"/></radialGradient></defs><title>sound</title><path d="M282.47,100.4,18.21,205.75C3.5,211.63-4.16,228.11,2.32,242.83L94.13,454.71c6.47,14.7,22.37,21.78,37.08,15.89l233.65-93c27.08,18.83,50.61,30,87.7,27.66-25.31-10-40-21.19-57.68-40h.59c14.71-5.87,22.37-22.94,15.89-37.07L319.55,116.29C313.07,101.58,297.19,94.52,282.47,100.4Z" fill="#231f20" fill-rule="evenodd"/><path d="M283.65,107.46l-256,94.17c-13.54,5.3-21.19,21.19-15.89,35.31l83,204.82a26.78,26.78,0,0,0,34.72,15.89l225.41-83c25.9,18.84,48.26,30.61,83.57,29.43-24.12-10.59-37.66-21.78-54.15-40l.59-.58c14.12-5.3,21.78-21.19,16.48-34.73l-83-205.41C313.07,109.82,297.77,102.17,283.65,107.46Z" fill="#839ca9" fill-rule="evenodd"/><path d="M389.58,39.78l-318.4,60a31.83,31.83,0,0,0-25.9,37.67l56.5,256.61c3.53,17.65,20,29.42,37.67,25.9L420.18,367.6c26.49,27.07,50,44.73,91.82,50.61-26.49-17.07-39.43-33-55.32-57.68h1.17c17.07-3.54,29.43-20.6,25.31-37.67L427.26,65.68C423.13,48.61,406.65,36.84,389.58,39.78Z" fill="#231f20" fill-rule="evenodd"/><path d="M389,48.61,83,97.46c-16.48,2.35-28.84,18.84-25.31,35.31L104.73,380c2.94,16.48,18.83,28.25,35.31,25.31l270.14-43c24.72,26.49,46.5,44.73,86.52,50.61-24.72-16.48-37.08-31.77-51.79-56.49h1.17c16.48-2.36,28.85-18.83,25.31-35.32L424.3,73.92C421.36,57.44,406.06,45.67,389,48.61Z" fill-rule="evenodd" fill="url(#GradientFill_1)"/><path d="M326.61,314.63l.59,2.36h-.59v-2.36Zm0-125.95V175.15c15.29,10,43.55,35.31,10.59,82.4l-8.83-5.89c23.54-33,10-53.56-1.76-63Zm0-31.19c3.53,1.76,31.78,12.95,41.2,46.49.58,2.95,9.41,46.5-19.42,66.5l5.88,8.83c35.31-25.31,24.13-77.68,24.13-77.68l-.59-.59c-11.77-41.2-48.26-53.56-48.26-53.56l-2.94,8.82ZM177.12,295.21l-17.07-93,50.61-9.42,79.45-74.16,36.5,196V317l-95.94-34.72-53.56,12.95Zm149.49-138.9v1.18h0v-1.18Zm0,18.84C321.9,172.79,319,171,319,171l-4.13,10a44.4,44.4,0,0,1,11.77,7.65Z" fill="#231f20" fill-rule="evenodd"/></svg>