<svg id="Layer_1" data-name="Layer 1" xmlns="http://www.w3.org/2000/svg" viewBox="0 0 512 512"><title>volume</title><path d="M0,256C0,114.61,114.61,0,256,0S512,114.63,512,256,397.38,512,256,512,0,397.39,0,256Z" fill="#ff3332"/><path d="M314.75,301.2c-2,4.86-7.08,7-10.88,5h0c-3.8-2-5.2-6.87-3.51-11a102.87,102.87,0,0,0,0-78.52c-1.69-4.1-.29-9,3.51-11h0c3.79-2,8.87.17,10.88,5A118.43,118.43,0,0,1,314.75,301.2Z" fill="#fff"/><path d="M347.38,320.23c-2,4.62-7,6.66-10.83,4.68h0c-3.81-2-5.21-6.86-3.42-10.95a144,144,0,0,0,0-115.93c-1.8-4.09-.39-8.95,3.42-10.95h0c3.81-2,8.8.06,10.83,4.68A159.55,159.55,0,0,1,347.38,320.23Z" fill="#fff"/><path d="M380,339.11c-2,4.49-7,6.45-10.8,4.47h0c-3.82-2-5.23-6.84-3.37-10.92a185.18,185.18,0,0,0,0-153.31c-1.86-4.08-.45-8.95,3.37-10.92h0c3.81-2,8.75,0,10.8,4.47A200.78,200.78,0,0,1,380,339.11Z" fill="#fff"/><path d="M163.7,207.13c-.65,0-1.36.1-2,.1H144.2a30.35,30.35,0,0,0-30.25,30.27v37a30.35,30.35,0,0,0,30.25,30.27h17.51c.62,0,1.34.08,2,.1Z" fill="#fff"/><path d="M253.37,165.69,217,190.28c-10.49,7.11-27.4,13.2-42.22,15.71V306c14.83,2.51,31.74,8.61,42.23,15.71l36.33,24.6c13.79,9.32,25.06,3.33,25.06-13.31V179C278.43,162.35,267.15,156.36,253.37,165.69Z" fill="#fff"/></svg>